HIERARCHY
ROOT pelvis
{
  OFFSET 0 100 0
  CHANNELS 6 Xposition Yposition Zposition Zrotation Xrotation Yrotation
  JOINT pelvis_right_femur
  {
    OFFSET -10.78128 -3.44521 -0.5502486
    CHANNELS 3 Zrotation Xrotation Yrotation
    JOINT right_femur_tibia
    {
      OFFSET -0.8047443 -44.0398 -0.1307829
      CHANNELS 3 Zrotation Xrotation Yrotation
      JOINT right_tibia_foot
      {
        OFFSET 3.006224 -47.83518 -5
        CHANNELS 3 Zrotation Xrotation Yrotation
        End Site
        {
          OFFSET 0 -5 15
        }
      }
    }
  }
  JOINT pelvis_left_femur
  {
    OFFSET 10.78128 -3.44521 -0.5502486
    CHANNELS 3 Zrotation Xrotation Yrotation
    JOINT left_femur_tibia
    {
      OFFSET 0.8047443 -44.0398 -0.1307829
      CHANNELS 3 Zrotation Xrotation Yrotation
      JOINT left_tibia_foot
      {
        OFFSET -4.370144 -48.10324 -4.275266
        CHANNELS 3 Zrotation Xrotation Yrotation
        End Site
        {
          OFFSET 0 -5 15
        }
      }
    }
  }
  JOINT pelvis_spine1
  {
    OFFSET 0 6.468898 -3.129235
    CHANNELS 3 Zrotation Xrotation Yrotation
    JOINT spine1
    {
      OFFSET 0 23.15396 4.99043
      CHANNELS 3 Zrotation Xrotation Yrotation
      JOINT spine2
      {
        OFFSET 0 20.79997 -5.064912
        CHANNELS 3 Zrotation Xrotation Yrotation
        JOINT neck
        {
          OFFSET 0 14.38658 9.616178
          CHANNELS 3 Zrotation Xrotation Yrotation
          End Site
          {
            OFFSET 0 20 0
          }
        }
      }
      JOINT right_manubrium
      {
        OFFSET -5.722621 16.35077 3.967754
        CHANNELS 3 Zrotation Xrotation Yrotation
        JOINT right_clavicle
        {
          OFFSET -13.16364 1.694482 -4.693211
          CHANNELS 3 Zrotation Xrotation Yrotation
          JOINT right_humerus
          {
            OFFSET -28.5034 -0.3100689 -2.792744
            CHANNELS 3 Zrotation Xrotation Yrotation
            JOINT right_radius
            {
              OFFSET -25.15693 0.02248979 -1.271978
              CHANNELS 3 Zrotation Xrotation Yrotation
              End Site
              {
                OFFSET -15 0 0
              }
            }
          }
        }
      }
      JOINT left_manubrium
      {
        OFFSET 5.722621 16.35077 3.967754
        CHANNELS 3 Zrotation Xrotation Yrotation
        JOINT left_clavicle
        {
          OFFSET 13.16364 1.694482 -4.693211
          CHANNELS 3 Zrotation Xrotation Yrotation
          JOINT left_humerus
          {
            OFFSET 29.39168 -1.063119 -2.237045
            CHANNELS 3 Zrotation Xrotation Yrotation
            JOINT left_radius
            {
              OFFSET 24.59957 -0.9528479 0.9047498
              CHANNELS 3 Zrotation Xrotation Yrotation
              End Site
              {
                OFFSET 15 -0 -0
              }
            }
          }
        }
      }
    }
  }
}
MOTION
Frames: 11
Frame Time: 0.0416666666667
21.27983 104.4606 243.4166 -0.4351488 -2.2378 -3.045175 5.576889 -1.552833 6.994551 -0 17.46022 -0 0.6802786 -13.52336 -6.838994 1.729199 -21.61047 -1.273574 -0 50.15592 -0 -8.932887 -6.874521 18.27822 2.3069 -6.062847 9.558082 -0.8721173 13.79894 -2.791037 1.65966 20.09266 4.894292 1.594204 -13.53837 5.71421 5.241101 -17.00004 12.09553 82.8433 24.51215 -12.8801 -0 0 14.01478 -23.27807 13.32097 12.14239 2.995187 -19.1766 -3.475459 -87.59116 17.32345 18.9956 0 0 -19.45897 0.08428629 7.287501 11.90684
21.50436 103.7643 249.2783 -0.535303 -2.588651 -4.324751 5.169619 2.157497 7.289329 -0 18.08001 -0 1.668329 -15.47363 -6.126256 3.478159 -25.89315 -0.2596484 -0 42.34318 -0 -9.075995 -7.299108 19.00472 2.298238 -4.86374 9.790213 -1.471844 13.38279 -2.067643 1.633365 20.02727 4.645345 1.141621 -13.33453 5.714227 4.558522 -18.45392 12.12375 81.08867 23.59173 -9.684904 -0 0 17.51325 -24.07342 12.97872 13.04008 3.074774 -18.31058 -3.103578 -88.37543 17.37183 20.74531 0 0 -18.41014 -0.2495915 7.094917 12.55719
21.97056 102.6563 254.9409 -0.6213942 -2.867396 -5.354053 4.63613 5.32164 7.377473 -0 19.33284 -0 2.73838 -17.07381 -5.678052 5.907932 -29.68766 0.494682 -0 35.14455 -0 -9.120938 -7.608215 19.14432 2.229377 -3.600825 9.94515 -1.987353 12.56834 -1.476827 1.56284 19.47061 4.506433 0.6376102 -13.75177 5.827409 4.212184 -20.32378 12.36867 79.01763 22.64646 -6.31605 -0 0 20.8154 -24.82365 12.64924 13.89457 2.782852 -17.21349 -2.983273 -89.09004 17.46436 22.49866 0 0 -16.674 -0.6017988 6.826908 13.47659
22.42199 101.4472 260.7109 -0.6277119 -2.879652 -5.406929 4.110791 7.360266 7.867263 -0 22.05513 -0 4.011954 -17.59816 -5.568646 6.183247 -32.47356 0.7254936 -0 28.90787 -0 -8.720614 -8.683762 18.61612 1.914107 -2.771419 9.670334 -2.377639 12.14552 -1.472574 1.683605 19.07901 4.369895 0.249797 -14.21962 6.083026 3.816578 -20.95898 12.10119 78.10622 21.72714 -4.447477 -0 0 22.88684 -25.22288 12.27822 14.25451 2.347374 -16.491 -3.046759 -89.46434 17.66738 23.6339 0 0 -14.90274 -1.008702 6.583592 14.52185
23.17465 100.3431 267.6124 -0.6378885 -2.911427 -5.525808 3.848938 8.235738 8.437622 -0 26.17141 -0 5.472644 -16.42652 -6.010409 4.810916 -33.48349 -0.2162154 -0 26.26216 -0 -8.454928 -9.351451 17.78952 1.727642 -2.979489 9.495872 -2.607722 11.82402 -1.559445 1.98772 19.00035 4.161477 0.007901988 -14.52035 6.362539 3.38999 -21.39075 11.52975 77.53314 20.88228 -3.169638 -0 0 24.53259 -25.56268 11.91139 14.574 1.892257 -15.29899 -2.956701 -89.91273 17.89994 24.83469 0 0 -13.04851 -1.492206 6.386708 15.59901
24.00552 99.56938 274.8781 -0.6559998 -2.972835 -5.762528 3.098462 9.762034 8.57052 -0 30.98892 -0 7.177053 -13.77757 -6.406656 3.078567 -32.23844 -1.694118 -0 27.20061 -0 -8.363261 -9.247377 16.95037 1.462641 -3.608715 9.386475 -2.633039 11.57469 -1.723656 2.324552 19.21887 3.95697 -0.147546 -14.54115 6.6328 3.009351 -21.221 10.82657 77.62742 20.23743 -2.842505 -0 0 25.38615 -25.68507 11.58521 14.6683 1.602388 -14.40886 -2.855622 -90.21116 18.18663 25.31646 0 0 -11.84951 -1.882417 6.255782 16.58749
24.88703 99.55612 282.319 -0.6471023 -2.95589 -5.70984 2.334082 10.47296 8.193403 -0 36.84747 -0 8.850248 -9.851129 -7.029334 1.803741 -29.82902 -2.897687 -0 29.49156 -0 -8.176723 -9.71852 16.17048 1.160685 -4.482776 9.235597 -2.606307 11.4033 -1.777306 2.630028 19.60425 3.778882 -0.2733769 -14.36646 6.885313 2.825538 -20.68079 10.14943 78.16752 19.86464 -3.276378 -0 0 25.33026 -25.54894 11.34461 14.48393 1.469139 -13.81431 -2.636452 -90.01035 18.53506 25.18875 0 0 -11.28639 -2.089445 6.260087 17.15982
25.76782 100.0104 289.3992 -0.6112366 -2.847822 -5.318312 1.4191 9.377409 7.384041 -0 43.82244 -0 9.911763 -6.840038 -7.799211 0.5416622 -26.5265 -3.861876 -0 30.61893 -0 -7.898529 -11.18148 15.2417 0.9308633 -5.319159 8.736745 -2.609451 11.35915 -1.898378 2.769057 20.35422 3.643649 -0.4621894 -13.95786 7.069872 2.800621 -19.97124 9.582804 79.05746 19.80774 -4.219569 -0 0 24.38234 -25.09488 11.23151 13.9279 1.496173 -13.75189 -2.401884 -89.14866 18.96069 24.17271 0 0 -11.44716 -2.045984 6.37491 17.28397
26.55168 100.9051 295.9379 -0.5359294 -2.59991 -4.407652 1.390044 5.170331 6.593491 -0 51.60975 -0 9.888738 -5.1383 -8.864191 -0.6267217 -22.3258 -4.559647 -0 30.37392 -0 -7.414727 -13.28451 14.40099 0.8326926 -6.03181 8.063999 -2.745798 11.18346 -1.861249 2.715529 20.84351 3.725211 -0.7830923 -13.88693 7.385474 3.013012 -19.00207 9.432796 80.17183 19.9993 -5.44072 -0 0 22.73778 -24.30185 11.24317 13.03538 1.514892 -13.98649 -2.358686 -87.64705 19.4949 22.51692 0 0 -11.73767 -1.824342 6.526031 17.1838
27.32513 102.2958 302.1697 -0.5118362 -2.512938 -4.083273 2.021991 -2.957225 5.95706 -0 56.71446 -0 8.515618 -6.588932 -9.561775 -1.466664 -17.67971 -5.150024 -0 29.21217 -0 -7.089665 -14.96659 13.87306 0.861727 -6.537076 7.122739 -2.754256 11.13589 -1.973886 2.402493 21.63969 4.008514 -1.234286 -13.64793 7.767724 3.488362 -18.17813 9.359343 81.41568 20.35134 -6.793608 -0 0 20.82807 -23.26945 11.32289 11.95222 1.38905 -14.57982 -2.445736 -85.86142 20.01878 20.15515 0 0 -12.3349 -1.493515 6.757696 16.87158
28.01097 103.7309 308.07 -0.4573426 -2.307289 -3.33565 2.547452 -9.854797 5.984829 -0 59.44148 -0 7.006132 -6.897437 -9.680045 -2.157071 -13.5327 -5.883201 -0 27.20202 -0 -6.956684 -16.13586 13.47003 0.7390399 -7.104362 5.832242 -2.520915 11.04176 -2.634337 2.068948 22.59708 4.339705 -1.661196 -13.24383 8.180846 3.654903 -17.49484 9.092757 82.68651 20.70097 -8.154387 -0 0 19.32212 -22.21138 11.35704 10.9763 1.457116 -15.18887 -2.740379 -84.07286 20.52002 17.31185 0 0 -13.19218 -1.15238 7.073035 16.42491
